<svg width="180" height="64" viewBox="0 0 180 64" fill="none" xmlns="http://www.w3.org/2000/svg">
<g id="BR&#196;&#146;Z Logo">
<path id="Combined Shape" fill-rule="evenodd" clip-rule="evenodd" d="M108.394 1.24614V0H124.514V1.24614H108.394ZM99.38 21.524C99.38 10.3654 99.0404 6.34377 94.1723 6.34377V5.77734H134.702V13.4241H134.136V13.1975C134.136 9.40248 126.664 6.34377 113.645 6.34377H104.248V30.7001C105.946 29.0575 108.211 28.0946 110.814 28.0946C113.699 28.0946 115.923 29.025 118.083 29.928C120.118 30.7794 122.096 31.6064 124.513 31.6064C126.664 31.6064 128.702 30.3603 128.702 28.3778H129.268C129.268 31.7197 126.494 34.6085 122.022 34.6085C118.065 34.6085 115.427 33.0086 113.14 31.6213C111.436 30.5878 109.926 29.6723 108.211 29.6239C106.569 29.5673 105.154 30.4169 104.248 31.6064V61.8536H111.494C116.871 61.8536 134.136 61.2306 134.136 53.074H134.702V62.4201H94.1723V61.8536C99.0404 61.8536 99.38 57.832 99.38 46.6734V21.524ZM0 5.93289V6.49846C4.85893 6.49846 5.19792 10.514 5.19792 21.6557V46.7669C5.19792 57.9086 4.85893 61.9242 0 61.9242V62.4897H6.7799C9.8461 62.4897 12.376 62.765 14.9394 63.044H14.9394H14.9395H14.9395C17.5719 63.3305 20.2397 63.6209 23.5601 63.6209C35.5945 63.6209 42.3179 57.0603 42.3179 47.2759C42.3179 38.6793 35.2555 33.1367 26.6111 33.1367C23.3465 33.1367 20.6141 34.3865 18.4385 35.3817C16.9994 36.0399 15.804 36.5867 14.8593 36.5867C14.1813 36.5867 13.2208 36.417 13.2208 35.1162C13.2208 32.6382 17.1998 31.3146 22.0165 29.7122C29.4025 27.2552 38.7584 24.1429 38.7584 15.2082C38.7584 7.29026 31.47 4.80176 23.5037 4.80176C21.0177 4.80176 18.0232 5.08454 15.0288 5.36732L15.0288 5.36733C12.0343 5.65011 9.03986 5.93289 6.5539 5.93289H0ZM10.0002 7.17734C13.2772 6.15931 16.5541 5.59374 20.2266 5.59374C27.1195 5.59374 33.8994 8.30847 33.8994 15.3215C33.8994 21.6498 27.3812 24.8024 21.5659 27.615C16.8829 29.8801 12.6557 31.9246 12.6557 35.2295C12.6557 36.5869 13.6162 37.1525 14.6332 37.1525C16.1531 37.1525 17.7787 36.447 19.5475 35.6794C21.6581 34.7635 23.9725 33.759 26.5545 33.759C33.6169 33.759 37.4588 40.8852 37.4588 47.672C37.4588 57.0605 30.8484 62.8293 20.3396 62.8293C16.1586 62.8293 13.4467 62.2637 10.0002 61.0194V7.17734ZM59.9059 62.4205H44.7021V61.8556C49.5628 61.8556 49.9019 57.8449 49.9019 46.7165V21.6355C49.9019 10.5071 49.5628 6.49642 44.7021 6.49642V5.93153H51.4845C54.5518 5.93153 57.0826 5.65654 59.647 5.37789C62.2804 5.09175 64.9492 4.80176 68.2709 4.80176C80.3096 4.80176 87.0354 11.4675 87.0354 20.6751C87.0354 28.4141 80.7052 35.4188 70.8708 35.4188C67.6864 35.4188 65.1112 34.12 63.0478 33.0794C61.6685 32.3838 60.5179 31.8035 59.5668 31.8035C58.8886 31.8035 57.9277 31.9729 57.9277 33.2722C57.9277 34.9536 60.4285 36.0308 63.5792 37.3882C67.3091 38.9949 71.9498 40.9941 74.4315 44.8524C75.0242 45.7748 75.6309 46.7518 76.2524 47.7529L76.2528 47.7534L76.2531 47.754C80.3135 54.2937 85.0085 61.8556 90.5962 61.8556V62.4205H81.9486C79.9223 62.4205 78.5139 60.2587 73.7633 52.9665C72.4186 50.9024 70.8061 48.4273 68.8361 45.4738C66.0152 41.2302 63.0596 39.1103 60.8548 37.5289C58.7745 36.0368 57.3625 35.024 57.3625 33.1592C57.3625 31.8035 58.3234 31.2386 59.3407 31.2386C60.8192 31.2386 62.1532 31.8715 63.6384 32.5761C65.503 33.4608 67.6058 34.4584 70.5316 34.4584C77.5966 34.4584 82.1747 27.5103 82.1747 20.7316C82.1747 11.3545 75.5619 5.5926 65.0492 5.5926C60.8668 5.5926 58.1538 6.15749 54.7061 7.40025V46.7165C54.7061 57.8449 55.0452 61.8556 59.9059 61.8556V62.4205ZM178.477 53.1113V62.4203H138.874L174.189 6.56613H158.111C148.408 6.56613 141.413 9.61272 141.413 13.3928V13.6184H140.849V6.00195H180L144.685 61.8561H152.752C158.111 61.8561 177.913 61.2355 177.913 53.1113H178.477Z" fill="#e3f98a"/>
<mask id="mask0_1120_1381" style="mask-type:luminance" maskUnits="userSpaceOnUse" x="0" y="0" width="180" height="64">
<path id="Combined Shape_2" fill-rule="evenodd" clip-rule="evenodd" d="M108.394 1.24614V0H124.514V1.24614H108.394ZM99.38 21.524C99.38 10.3654 99.0404 6.34377 94.1723 6.34377V5.77734H134.702V13.4241H134.136V13.1975C134.136 9.40248 126.664 6.34377 113.645 6.34377H104.248V30.7001C105.946 29.0575 108.211 28.0946 110.814 28.0946C113.699 28.0946 115.923 29.025 118.083 29.928C120.118 30.7794 122.096 31.6064 124.513 31.6064C126.664 31.6064 128.702 30.3603 128.702 28.3778H129.268C129.268 31.7197 126.494 34.6085 122.022 34.6085C118.065 34.6085 115.427 33.0086 113.14 31.6213C111.436 30.5878 109.926 29.6723 108.211 29.6239C106.569 29.5673 105.154 30.4169 104.248 31.6064V61.8536H111.494C116.871 61.8536 134.136 61.2306 134.136 53.074H134.702V62.4201H94.1723V61.8536C99.0404 61.8536 99.38 57.832 99.38 46.6734V21.524ZM0 5.93289V6.49846C4.85893 6.49846 5.19792 10.514 5.19792 21.6557V46.7669C5.19792 57.9086 4.85893 61.9242 0 61.9242V62.4897H6.7799C9.8461 62.4897 12.376 62.765 14.9394 63.044H14.9394H14.9395H14.9395C17.5719 63.3305 20.2397 63.6209 23.5601 63.6209C35.5945 63.6209 42.3179 57.0603 42.3179 47.2759C42.3179 38.6793 35.2555 33.1367 26.6111 33.1367C23.3465 33.1367 20.6141 34.3865 18.4385 35.3817C16.9994 36.0399 15.804 36.5867 14.8593 36.5867C14.1813 36.5867 13.2208 36.417 13.2208 35.1162C13.2208 32.6382 17.1998 31.3146 22.0165 29.7122C29.4025 27.2552 38.7584 24.1429 38.7584 15.2082C38.7584 7.29026 31.47 4.80176 23.5037 4.80176C21.0177 4.80176 18.0232 5.08454 15.0288 5.36732L15.0288 5.36733C12.0343 5.65011 9.03986 5.93289 6.5539 5.93289H0ZM10.0002 7.17734C13.2772 6.15931 16.5541 5.59374 20.2266 5.59374C27.1195 5.59374 33.8994 8.30847 33.8994 15.3215C33.8994 21.6498 27.3812 24.8024 21.5659 27.615C16.8829 29.8801 12.6557 31.9246 12.6557 35.2295C12.6557 36.5869 13.6162 37.1525 14.6332 37.1525C16.1531 37.1525 17.7787 36.447 19.5475 35.6794C21.6581 34.7635 23.9725 33.759 26.5545 33.759C33.6169 33.759 37.4588 40.8852 37.4588 47.672C37.4588 57.0605 30.8484 62.8293 20.3396 62.8293C16.1586 62.8293 13.4467 62.2637 10.0002 61.0194V7.17734ZM59.9059 62.4205H44.7021V61.8556C49.5628 61.8556 49.9019 57.8449 49.9019 46.7165V21.6355C49.9019 10.5071 49.5628 6.49642 44.7021 6.49642V5.93153H51.4845C54.5518 5.93153 57.0826 5.65654 59.647 5.37789C62.2804 5.09175 64.9492 4.80176 68.2709 4.80176C80.3096 4.80176 87.0354 11.4675 87.0354 20.6751C87.0354 28.4141 80.7052 35.4188 70.8708 35.4188C67.6864 35.4188 65.1112 34.12 63.0478 33.0794C61.6685 32.3838 60.5179 31.8035 59.5668 31.8035C58.8886 31.8035 57.9277 31.9729 57.9277 33.2722C57.9277 34.9536 60.4285 36.0308 63.5792 37.3882C67.3091 38.9949 71.9498 40.9941 74.4315 44.8524C75.0242 45.7748 75.6309 46.7518 76.2524 47.7529L76.2528 47.7534L76.2531 47.754C80.3135 54.2937 85.0085 61.8556 90.5962 61.8556V62.4205H81.9486C79.9223 62.4205 78.5139 60.2587 73.7633 52.9665C72.4186 50.9024 70.8061 48.4273 68.8361 45.4738C66.0152 41.2302 63.0596 39.1103 60.8548 37.5289C58.7745 36.0368 57.3625 35.024 57.3625 33.1592C57.3625 31.8035 58.3234 31.2386 59.3407 31.2386C60.8192 31.2386 62.1532 31.8715 63.6384 32.5761C65.503 33.4608 67.6058 34.4584 70.5316 34.4584C77.5966 34.4584 82.1747 27.5103 82.1747 20.7316C82.1747 11.3545 75.5619 5.5926 65.0492 5.5926C60.8668 5.5926 58.1538 6.15749 54.7061 7.40025V46.7165C54.7061 57.8449 55.0452 61.8556 59.9059 61.8556V62.4205ZM178.477 53.1113V62.4203H138.874L174.189 6.56613H158.111C148.408 6.56613 141.413 9.61272 141.413 13.3928V13.6184H140.849V6.00195H180L144.685 61.8561H152.752C158.111 61.8561 177.913 61.2355 177.913 53.1113H178.477Z" fill="white"/>
</mask>
<g mask="url(#mask0_1120_1381)">
</g>
</g>
</svg>
